ISO-10303-21;
HEADER;
FILE_DESCRIPTION(('FreeCAD Model'),'2;1');
FILE_NAME('Open CASCADE Shape Model','2026-07-02T15:18:00',('Author'),(
    ''),'Open CASCADE STEP processor 7.8','FreeCAD','Unknown');
FILE_SCHEMA(('AUTOMOTIVE_DESIGN { 1 0 10303 214 1 1 1 1 }'));
ENDSEC;
DATA;
#1 = APPLICATION_PROTOCOL_DEFINITION('international standard',
  'automotive_design',2000,#2);
#2 = APPLICATION_CONTEXT(
  'core data for automotive mechanical design processes');
#3 = SHAPE_DEFINITION_REPRESENTATION(#4,#10);
#4 = PRODUCT_DEFINITION_SHAPE('','',#5);
#5 = PRODUCT_DEFINITION('design','',#6,#9);
#6 = PRODUCT_DEFINITION_FORMATION('','',#7);
#7 = PRODUCT('TouchSuport','TouchSuport','',(#8));
#8 = PRODUCT_CONTEXT('',#2,'mechanical');
#9 = PRODUCT_DEFINITION_CONTEXT('part definition',#2,'design');
#10 = ADVANCED_BREP_SHAPE_REPRESENTATION('',(#11,#15),#667);
#11 = AXIS2_PLACEMENT_3D('',#12,#13,#14);
#12 = CARTESIAN_POINT('',(0.,0.,0.));
#13 = DIRECTION('',(0.,0.,1.));
#14 = DIRECTION('',(1.,0.,-0.));
#15 = MANIFOLD_SOLID_BREP('',#16);
#16 = CLOSED_SHELL('',(#17,#91,#122,#146,#170,#187,#282,#306,#330,#347,
    #378,#402,#426,#443,#478,#502,#526,#550,#574,#598,#622,#639,#651));
#17 = ADVANCED_FACE('',(#18,#52),#86,.F.);
#18 = FACE_BOUND('',#19,.F.);
#19 = EDGE_LOOP('',(#20,#30,#38,#46));
#20 = ORIENTED_EDGE('',*,*,#21,.T.);
#21 = EDGE_CURVE('',#22,#24,#26,.T.);
#22 = VERTEX_POINT('',#23);
#23 = CARTESIAN_POINT('',(5.7,-5.3,6.15));
#24 = VERTEX_POINT('',#25);
#25 = CARTESIAN_POINT('',(-5.3,-5.3,6.15));
#26 = LINE('',#27,#28);
#27 = CARTESIAN_POINT('',(5.2,-5.3,6.15));
#28 = VECTOR('',#29,1.);
#29 = DIRECTION('',(-1.,0.,0.));
#30 = ORIENTED_EDGE('',*,*,#31,.T.);
#31 = EDGE_CURVE('',#24,#32,#34,.T.);
#32 = VERTEX_POINT('',#33);
#33 = CARTESIAN_POINT('',(-5.3,-5.3,-4.85));
#34 = LINE('',#35,#36);
#35 = CARTESIAN_POINT('',(-5.3,-5.3,5.65));
#36 = VECTOR('',#37,1.);
#37 = DIRECTION('',(0.,-2.22044604925E-16,-1.));
#38 = ORIENTED_EDGE('',*,*,#39,.T.);
#39 = EDGE_CURVE('',#32,#40,#42,.T.);
#40 = VERTEX_POINT('',#41);
#41 = CARTESIAN_POINT('',(5.7,-5.3,-4.85));
#42 = LINE('',#43,#44);
#43 = CARTESIAN_POINT('',(-4.8,-5.3,-4.85));
#44 = VECTOR('',#45,1.);
#45 = DIRECTION('',(1.,0.,0.));
#46 = ORIENTED_EDGE('',*,*,#47,.T.);
#47 = EDGE_CURVE('',#40,#22,#48,.T.);
#48 = LINE('',#49,#50);
#49 = CARTESIAN_POINT('',(5.7,-5.3,-4.35));
#50 = VECTOR('',#51,1.);
#51 = DIRECTION('',(0.,2.22044604925E-16,1.));
#52 = FACE_BOUND('',#53,.F.);
#53 = EDGE_LOOP('',(#54,#64,#72,#80));
#54 = ORIENTED_EDGE('',*,*,#55,.F.);
#55 = EDGE_CURVE('',#56,#58,#60,.T.);
#56 = VERTEX_POINT('',#57);
#57 = CARTESIAN_POINT('',(-6.8,-5.3,-7.65));
#58 = VERTEX_POINT('',#59);
#59 = CARTESIAN_POINT('',(6.8,-5.3,-7.65));
#60 = LINE('',#61,#62);
#61 = CARTESIAN_POINT('',(-6.8,-5.3,-7.65));
#62 = VECTOR('',#63,1.);
#63 = DIRECTION('',(1.,0.,0.));
#64 = ORIENTED_EDGE('',*,*,#65,.F.);
#65 = EDGE_CURVE('',#66,#56,#68,.T.);
#66 = VERTEX_POINT('',#67);
#67 = CARTESIAN_POINT('',(-6.8,-5.3,7.65));
#68 = LINE('',#69,#70);
#69 = CARTESIAN_POINT('',(-6.8,-5.3,7.65));
#70 = VECTOR('',#71,1.);
#71 = DIRECTION('',(0.,-2.22044604925E-16,-1.));
#72 = ORIENTED_EDGE('',*,*,#73,.F.);
#73 = EDGE_CURVE('',#74,#66,#76,.T.);
#74 = VERTEX_POINT('',#75);
#75 = CARTESIAN_POINT('',(6.8,-5.3,7.65));
#76 = LINE('',#77,#78);
#77 = CARTESIAN_POINT('',(6.8,-5.3,7.65));
#78 = VECTOR('',#79,1.);
#79 = DIRECTION('',(-1.,0.,0.));
#80 = ORIENTED_EDGE('',*,*,#81,.F.);
#81 = EDGE_CURVE('',#58,#74,#82,.T.);
#82 = LINE('',#83,#84);
#83 = CARTESIAN_POINT('',(6.8,-5.3,-7.65));
#84 = VECTOR('',#85,1.);
#85 = DIRECTION('',(0.,2.22044604925E-16,1.));
#86 = PLANE('',#87);
#87 = AXIS2_PLACEMENT_3D('',#88,#89,#90);
#88 = CARTESIAN_POINT('',(0.,-5.3,1.422698944428E-15));
#89 = DIRECTION('',(0.,1.,0.));
#90 = DIRECTION('',(0.,0.,1.));
#91 = ADVANCED_FACE('',(#92),#117,.T.);
#92 = FACE_BOUND('',#93,.T.);
#93 = EDGE_LOOP('',(#94,#102,#103,#111));
#94 = ORIENTED_EDGE('',*,*,#95,.F.);
#95 = EDGE_CURVE('',#22,#96,#98,.T.);
#96 = VERTEX_POINT('',#97);
#97 = CARTESIAN_POINT('',(5.2,-4.8,5.65));
#98 = LINE('',#99,#100);
#99 = CARTESIAN_POINT('',(3.7,-3.3,4.15));
#100 = VECTOR('',#101,1.);
#101 = DIRECTION('',(-0.57735026919,0.57735026919,-0.57735026919));
#102 = ORIENTED_EDGE('',*,*,#21,.T.);
#103 = ORIENTED_EDGE('',*,*,#104,.T.);
#104 = EDGE_CURVE('',#24,#105,#107,.T.);
#105 = VERTEX_POINT('',#106);
#106 = CARTESIAN_POINT('',(-4.8,-4.8,5.65));
#107 = LINE('',#108,#109);
#108 = CARTESIAN_POINT('',(-3.3,-3.3,4.15));
#109 = VECTOR('',#110,1.);
#110 = DIRECTION('',(0.57735026919,0.57735026919,-0.57735026919));
#111 = ORIENTED_EDGE('',*,*,#112,.F.);
#112 = EDGE_CURVE('',#96,#105,#113,.T.);
#113 = LINE('',#114,#115);
#114 = CARTESIAN_POINT('',(5.2,-4.8,5.65));
#115 = VECTOR('',#116,1.);
#116 = DIRECTION('',(-1.,0.,0.));
#117 = PLANE('',#118);
#118 = AXIS2_PLACEMENT_3D('',#119,#120,#121);
#119 = CARTESIAN_POINT('',(5.2,-5.05,5.9));
#120 = DIRECTION('',(0.,-0.707106781187,-0.707106781187));
#121 = DIRECTION('',(-1.,0.,0.));
#122 = ADVANCED_FACE('',(#123),#141,.T.);
#123 = FACE_BOUND('',#124,.T.);
#124 = EDGE_LOOP('',(#125,#133,#134,#135));
#125 = ORIENTED_EDGE('',*,*,#126,.F.);
#126 = EDGE_CURVE('',#40,#127,#129,.T.);
#127 = VERTEX_POINT('',#128);
#128 = CARTESIAN_POINT('',(5.2,-4.8,-4.35));
#129 = LINE('',#130,#131);
#130 = CARTESIAN_POINT('',(3.7,-3.3,-2.85));
#131 = VECTOR('',#132,1.);
#132 = DIRECTION('',(-0.57735026919,0.57735026919,0.57735026919));
#133 = ORIENTED_EDGE('',*,*,#47,.T.);
#134 = ORIENTED_EDGE('',*,*,#95,.T.);
#135 = ORIENTED_EDGE('',*,*,#136,.F.);
#136 = EDGE_CURVE('',#127,#96,#137,.T.);
#137 = LINE('',#138,#139);
#138 = CARTESIAN_POINT('',(5.2,-4.8,-4.35));
#139 = VECTOR('',#140,1.);
#140 = DIRECTION('',(0.,2.22044604925E-16,1.));
#141 = PLANE('',#142);
#142 = AXIS2_PLACEMENT_3D('',#143,#144,#145);
#143 = CARTESIAN_POINT('',(5.45,-5.05,-4.35));
#144 = DIRECTION('',(-0.707106781187,-0.707106781187,0.));
#145 = DIRECTION('',(-1.110223024625E-16,1.110223024625E-16,1.));
#146 = ADVANCED_FACE('',(#147),#165,.T.);
#147 = FACE_BOUND('',#148,.T.);
#148 = EDGE_LOOP('',(#149,#150,#151,#159));
#149 = ORIENTED_EDGE('',*,*,#104,.F.);
#150 = ORIENTED_EDGE('',*,*,#31,.T.);
#151 = ORIENTED_EDGE('',*,*,#152,.T.);
#152 = EDGE_CURVE('',#32,#153,#155,.T.);
#153 = VERTEX_POINT('',#154);
#154 = CARTESIAN_POINT('',(-4.8,-4.8,-4.35));
#155 = LINE('',#156,#157);
#156 = CARTESIAN_POINT('',(-3.3,-3.3,-2.85));
#157 = VECTOR('',#158,1.);
#158 = DIRECTION('',(0.57735026919,0.57735026919,0.57735026919));
#159 = ORIENTED_EDGE('',*,*,#160,.F.);
#160 = EDGE_CURVE('',#105,#153,#161,.T.);
#161 = LINE('',#162,#163);
#162 = CARTESIAN_POINT('',(-4.8,-4.8,5.65));
#163 = VECTOR('',#164,1.);
#164 = DIRECTION('',(0.,-2.22044604925E-16,-1.));
#165 = PLANE('',#166);
#166 = AXIS2_PLACEMENT_3D('',#167,#168,#169);
#167 = CARTESIAN_POINT('',(-5.05,-5.05,5.65));
#168 = DIRECTION('',(0.707106781187,-0.707106781187,0.));
#169 = DIRECTION('',(-1.110223024625E-16,-1.110223024625E-16,-1.));
#170 = ADVANCED_FACE('',(#171),#182,.T.);
#171 = FACE_BOUND('',#172,.T.);
#172 = EDGE_LOOP('',(#173,#174,#175,#176));
#173 = ORIENTED_EDGE('',*,*,#152,.F.);
#174 = ORIENTED_EDGE('',*,*,#39,.T.);
#175 = ORIENTED_EDGE('',*,*,#126,.T.);
#176 = ORIENTED_EDGE('',*,*,#177,.F.);
#177 = EDGE_CURVE('',#153,#127,#178,.T.);
#178 = LINE('',#179,#180);
#179 = CARTESIAN_POINT('',(-4.8,-4.8,-4.35));
#180 = VECTOR('',#181,1.);
#181 = DIRECTION('',(1.,0.,0.));
#182 = PLANE('',#183);
#183 = AXIS2_PLACEMENT_3D('',#184,#185,#186);
#184 = CARTESIAN_POINT('',(-4.8,-5.05,-4.6));
#185 = DIRECTION('',(0.,-0.707106781187,0.707106781187));
#186 = DIRECTION('',(1.,0.,0.));
#187 = ADVANCED_FACE('',(#188),#277,.F.);
#188 = FACE_BOUND('',#189,.F.);
#189 = EDGE_LOOP('',(#190,#200,#206,#207,#215,#223,#231,#239,#247,#255,
    #263,#271));
#190 = ORIENTED_EDGE('',*,*,#191,.F.);
#191 = EDGE_CURVE('',#192,#194,#196,.T.);
#192 = VERTEX_POINT('',#193);
#193 = CARTESIAN_POINT('',(-6.8,-1.698641227676E-15,-7.65));
#194 = VERTEX_POINT('',#195);
#195 = CARTESIAN_POINT('',(-4.3,-1.698641227676E-15,-7.65));
#196 = LINE('',#197,#198);
#197 = CARTESIAN_POINT('',(-6.8,-1.698641227676E-15,-7.65));
#198 = VECTOR('',#199,1.);
#199 = DIRECTION('',(1.,0.,0.));
#200 = ORIENTED_EDGE('',*,*,#201,.T.);
#201 = EDGE_CURVE('',#192,#56,#202,.T.);
#202 = LINE('',#203,#204);
#203 = CARTESIAN_POINT('',(-6.8,-1.698641227676E-15,-7.65));
#204 = VECTOR('',#205,1.);
#205 = DIRECTION('',(0.,-1.,2.22044604925E-16));
#206 = ORIENTED_EDGE('',*,*,#55,.T.);
#207 = ORIENTED_EDGE('',*,*,#208,.F.);
#208 = EDGE_CURVE('',#209,#58,#211,.T.);
#209 = VERTEX_POINT('',#210);
#210 = CARTESIAN_POINT('',(6.8,-1.698641227676E-15,-7.65));
#211 = LINE('',#212,#213);
#212 = CARTESIAN_POINT('',(6.8,-1.698641227676E-15,-7.65));
#213 = VECTOR('',#214,1.);
#214 = DIRECTION('',(0.,-1.,2.22044604925E-16));
#215 = ORIENTED_EDGE('',*,*,#216,.F.);
#216 = EDGE_CURVE('',#217,#209,#219,.T.);
#217 = VERTEX_POINT('',#218);
#218 = CARTESIAN_POINT('',(4.3,-1.698641227676E-15,-7.65));
#219 = LINE('',#220,#221);
#220 = CARTESIAN_POINT('',(-6.8,-1.698641227676E-15,-7.65));
#221 = VECTOR('',#222,1.);
#222 = DIRECTION('',(1.,0.,0.));
#223 = ORIENTED_EDGE('',*,*,#224,.T.);
#224 = EDGE_CURVE('',#217,#225,#227,.T.);
#225 = VERTEX_POINT('',#226);
#226 = CARTESIAN_POINT('',(4.3,-0.999999999954,-7.65));
#227 = LINE('',#228,#229);
#228 = CARTESIAN_POINT('',(4.3,-1.698641227676E-15,-7.65));
#229 = VECTOR('',#230,1.);
#230 = DIRECTION('',(0.,-1.,0.));
#231 = ORIENTED_EDGE('',*,*,#232,.T.);
#232 = EDGE_CURVE('',#225,#233,#235,.T.);
#233 = VERTEX_POINT('',#234);
#234 = CARTESIAN_POINT('',(5.8,-0.999999999954,-7.65));
#235 = LINE('',#236,#237);
#236 = CARTESIAN_POINT('',(4.3,-0.999999999954,-7.65));
#237 = VECTOR('',#238,1.);
#238 = DIRECTION('',(1.,0.,0.));
#239 = ORIENTED_EDGE('',*,*,#240,.T.);
#240 = EDGE_CURVE('',#233,#241,#243,.T.);
#241 = VERTEX_POINT('',#242);
#242 = CARTESIAN_POINT('',(5.8,-2.3,-7.65));
#243 = LINE('',#244,#245);
#244 = CARTESIAN_POINT('',(5.8,-0.999999999954,-7.65));
#245 = VECTOR('',#246,1.);
#246 = DIRECTION('',(0.,-1.,0.));
#247 = ORIENTED_EDGE('',*,*,#248,.T.);
#248 = EDGE_CURVE('',#241,#249,#251,.T.);
#249 = VERTEX_POINT('',#250);
#250 = CARTESIAN_POINT('',(-5.8,-2.3,-7.65));
#251 = LINE('',#252,#253);
#252 = CARTESIAN_POINT('',(5.8,-2.3,-7.65));
#253 = VECTOR('',#254,1.);
#254 = DIRECTION('',(-1.,0.,0.));
#255 = ORIENTED_EDGE('',*,*,#256,.T.);
#256 = EDGE_CURVE('',#249,#257,#259,.T.);
#257 = VERTEX_POINT('',#258);
#258 = CARTESIAN_POINT('',(-5.8,-1.,-7.65));
#259 = LINE('',#260,#261);
#260 = CARTESIAN_POINT('',(-5.8,-2.3,-7.65));
#261 = VECTOR('',#262,1.);
#262 = DIRECTION('',(0.,1.,0.));
#263 = ORIENTED_EDGE('',*,*,#264,.T.);
#264 = EDGE_CURVE('',#257,#265,#267,.T.);
#265 = VERTEX_POINT('',#266);
#266 = CARTESIAN_POINT('',(-4.3,-1.,-7.65));
#267 = LINE('',#268,#269);
#268 = CARTESIAN_POINT('',(-5.8,-1.,-7.65));
#269 = VECTOR('',#270,1.);
#270 = DIRECTION('',(1.,0.,0.));
#271 = ORIENTED_EDGE('',*,*,#272,.T.);
#272 = EDGE_CURVE('',#265,#194,#273,.T.);
#273 = LINE('',#274,#275);
#274 = CARTESIAN_POINT('',(-4.3,-1.,-7.65));
#275 = VECTOR('',#276,1.);
#276 = DIRECTION('',(0.,1.,0.));
#277 = PLANE('',#278);
#278 = AXIS2_PLACEMENT_3D('',#279,#280,#281);
#279 = CARTESIAN_POINT('',(-6.8,-1.698641227676E-15,-7.65));
#280 = DIRECTION('',(0.,2.22044604925E-16,1.));
#281 = DIRECTION('',(1.,0.,0.));
#282 = ADVANCED_FACE('',(#283),#301,.F.);
#283 = FACE_BOUND('',#284,.F.);
#284 = EDGE_LOOP('',(#285,#293,#294,#295));
#285 = ORIENTED_EDGE('',*,*,#286,.T.);
#286 = EDGE_CURVE('',#287,#66,#289,.T.);
#287 = VERTEX_POINT('',#288);
#288 = CARTESIAN_POINT('',(-6.8,1.698641227676E-15,7.65));
#289 = LINE('',#290,#291);
#290 = CARTESIAN_POINT('',(-6.8,1.698641227676E-15,7.65));
#291 = VECTOR('',#292,1.);
#292 = DIRECTION('',(0.,-1.,2.22044604925E-16));
#293 = ORIENTED_EDGE('',*,*,#65,.T.);
#294 = ORIENTED_EDGE('',*,*,#201,.F.);
#295 = ORIENTED_EDGE('',*,*,#296,.F.);
#296 = EDGE_CURVE('',#287,#192,#297,.T.);
#297 = LINE('',#298,#299);
#298 = CARTESIAN_POINT('',(-6.8,1.698641227676E-15,7.65));
#299 = VECTOR('',#300,1.);
#300 = DIRECTION('',(0.,-2.22044604925E-16,-1.));
#301 = PLANE('',#302);
#302 = AXIS2_PLACEMENT_3D('',#303,#304,#305);
#303 = CARTESIAN_POINT('',(-6.8,1.698641227676E-15,7.65));
#304 = DIRECTION('',(1.,0.,0.));
#305 = DIRECTION('',(0.,-2.22044604925E-16,-1.));
#306 = ADVANCED_FACE('',(#307),#325,.F.);
#307 = FACE_BOUND('',#308,.F.);
#308 = EDGE_LOOP('',(#309,#310,#311,#319));
#309 = ORIENTED_EDGE('',*,*,#208,.T.);
#310 = ORIENTED_EDGE('',*,*,#81,.T.);
#311 = ORIENTED_EDGE('',*,*,#312,.F.);
#312 = EDGE_CURVE('',#313,#74,#315,.T.);
#313 = VERTEX_POINT('',#314);
#314 = CARTESIAN_POINT('',(6.8,1.698641227676E-15,7.65));
#315 = LINE('',#316,#317);
#316 = CARTESIAN_POINT('',(6.8,1.698641227676E-15,7.65));
#317 = VECTOR('',#318,1.);
#318 = DIRECTION('',(0.,-1.,2.22044604925E-16));
#319 = ORIENTED_EDGE('',*,*,#320,.F.);
#320 = EDGE_CURVE('',#209,#313,#321,.T.);
#321 = LINE('',#322,#323);
#322 = CARTESIAN_POINT('',(6.8,-1.698641227676E-15,-7.65));
#323 = VECTOR('',#324,1.);
#324 = DIRECTION('',(0.,2.22044604925E-16,1.));
#325 = PLANE('',#326);
#326 = AXIS2_PLACEMENT_3D('',#327,#328,#329);
#327 = CARTESIAN_POINT('',(6.8,-1.698641227676E-15,-7.65));
#328 = DIRECTION('',(-1.,0.,0.));
#329 = DIRECTION('',(0.,2.22044604925E-16,1.));
#330 = ADVANCED_FACE('',(#331),#342,.F.);
#331 = FACE_BOUND('',#332,.F.);
#332 = EDGE_LOOP('',(#333,#334,#335,#336));
#333 = ORIENTED_EDGE('',*,*,#312,.T.);
#334 = ORIENTED_EDGE('',*,*,#73,.T.);
#335 = ORIENTED_EDGE('',*,*,#286,.F.);
#336 = ORIENTED_EDGE('',*,*,#337,.F.);
#337 = EDGE_CURVE('',#313,#287,#338,.T.);
#338 = LINE('',#339,#340);
#339 = CARTESIAN_POINT('',(6.8,1.698641227676E-15,7.65));
#340 = VECTOR('',#341,1.);
#341 = DIRECTION('',(-1.,0.,0.));
#342 = PLANE('',#343);
#343 = AXIS2_PLACEMENT_3D('',#344,#345,#346);
#344 = CARTESIAN_POINT('',(6.8,1.698641227676E-15,7.65));
#345 = DIRECTION('',(-0.,-2.22044604925E-16,-1.));
#346 = DIRECTION('',(-1.,0.,0.));
#347 = ADVANCED_FACE('',(#348),#373,.F.);
#348 = FACE_BOUND('',#349,.F.);
#349 = EDGE_LOOP('',(#350,#358,#366,#372));
#350 = ORIENTED_EDGE('',*,*,#351,.T.);
#351 = EDGE_CURVE('',#96,#352,#354,.T.);
#352 = VERTEX_POINT('',#353);
#353 = CARTESIAN_POINT('',(5.2,-4.3,5.65));
#354 = LINE('',#355,#356);
#355 = CARTESIAN_POINT('',(5.2,-5.3,5.65));
#356 = VECTOR('',#357,1.);
#357 = DIRECTION('',(0.,1.,-2.22044604925E-16));
#358 = ORIENTED_EDGE('',*,*,#359,.T.);
#359 = EDGE_CURVE('',#352,#360,#362,.T.);
#360 = VERTEX_POINT('',#361);
#361 = CARTESIAN_POINT('',(-4.8,-4.3,5.65));
#362 = LINE('',#363,#364);
#363 = CARTESIAN_POINT('',(5.2,-4.3,5.65));
#364 = VECTOR('',#365,1.);
#365 = DIRECTION('',(-1.,0.,0.));
#366 = ORIENTED_EDGE('',*,*,#367,.F.);
#367 = EDGE_CURVE('',#105,#360,#368,.T.);
#368 = LINE('',#369,#370);
#369 = CARTESIAN_POINT('',(-4.8,-5.3,5.65));
#370 = VECTOR('',#371,1.);
#371 = DIRECTION('',(0.,1.,-2.22044604925E-16));
#372 = ORIENTED_EDGE('',*,*,#112,.F.);
#373 = PLANE('',#374);
#374 = AXIS2_PLACEMENT_3D('',#375,#376,#377);
#375 = CARTESIAN_POINT('',(5.2,-5.3,5.65));
#376 = DIRECTION('',(0.,2.22044604925E-16,1.));
#377 = DIRECTION('',(-1.,0.,0.));
#378 = ADVANCED_FACE('',(#379),#397,.F.);
#379 = FACE_BOUND('',#380,.F.);
#380 = EDGE_LOOP('',(#381,#389,#395,#396));
#381 = ORIENTED_EDGE('',*,*,#382,.T.);
#382 = EDGE_CURVE('',#127,#383,#385,.T.);
#383 = VERTEX_POINT('',#384);
#384 = CARTESIAN_POINT('',(5.2,-4.3,-4.35));
#385 = LINE('',#386,#387);
#386 = CARTESIAN_POINT('',(5.2,-5.3,-4.35));
#387 = VECTOR('',#388,1.);
#388 = DIRECTION('',(0.,1.,-2.22044604925E-16));
#389 = ORIENTED_EDGE('',*,*,#390,.T.);
#390 = EDGE_CURVE('',#383,#352,#391,.T.);
#391 = LINE('',#392,#393);
#392 = CARTESIAN_POINT('',(5.2,-4.3,-4.35));
#393 = VECTOR('',#394,1.);
#394 = DIRECTION('',(0.,2.22044604925E-16,1.));
#395 = ORIENTED_EDGE('',*,*,#351,.F.);
#396 = ORIENTED_EDGE('',*,*,#136,.F.);
#397 = PLANE('',#398);
#398 = AXIS2_PLACEMENT_3D('',#399,#400,#401);
#399 = CARTESIAN_POINT('',(5.2,-5.3,-4.35));
#400 = DIRECTION('',(1.,0.,0.));
#401 = DIRECTION('',(0.,2.22044604925E-16,1.));
#402 = ADVANCED_FACE('',(#403),#421,.F.);
#403 = FACE_BOUND('',#404,.F.);
#404 = EDGE_LOOP('',(#405,#406,#414,#420));
#405 = ORIENTED_EDGE('',*,*,#367,.T.);
#406 = ORIENTED_EDGE('',*,*,#407,.T.);
#407 = EDGE_CURVE('',#360,#408,#410,.T.);
#408 = VERTEX_POINT('',#409);
#409 = CARTESIAN_POINT('',(-4.8,-4.3,-4.35));
#410 = LINE('',#411,#412);
#411 = CARTESIAN_POINT('',(-4.8,-4.3,5.65));
#412 = VECTOR('',#413,1.);
#413 = DIRECTION('',(0.,-2.22044604925E-16,-1.));
#414 = ORIENTED_EDGE('',*,*,#415,.F.);
#415 = EDGE_CURVE('',#153,#408,#416,.T.);
#416 = LINE('',#417,#418);
#417 = CARTESIAN_POINT('',(-4.8,-5.3,-4.35));
#418 = VECTOR('',#419,1.);
#419 = DIRECTION('',(0.,1.,-2.22044604925E-16));
#420 = ORIENTED_EDGE('',*,*,#160,.F.);
#421 = PLANE('',#422);
#422 = AXIS2_PLACEMENT_3D('',#423,#424,#425);
#423 = CARTESIAN_POINT('',(-4.8,-5.3,5.65));
#424 = DIRECTION('',(-1.,0.,0.));
#425 = DIRECTION('',(0.,-2.22044604925E-16,-1.));
#426 = ADVANCED_FACE('',(#427),#438,.F.);
#427 = FACE_BOUND('',#428,.F.);
#428 = EDGE_LOOP('',(#429,#430,#436,#437));
#429 = ORIENTED_EDGE('',*,*,#415,.T.);
#430 = ORIENTED_EDGE('',*,*,#431,.T.);
#431 = EDGE_CURVE('',#408,#383,#432,.T.);
#432 = LINE('',#433,#434);
#433 = CARTESIAN_POINT('',(-4.8,-4.3,-4.35));
#434 = VECTOR('',#435,1.);
#435 = DIRECTION('',(1.,0.,0.));
#436 = ORIENTED_EDGE('',*,*,#382,.F.);
#437 = ORIENTED_EDGE('',*,*,#177,.F.);
#438 = PLANE('',#439);
#439 = AXIS2_PLACEMENT_3D('',#440,#441,#442);
#440 = CARTESIAN_POINT('',(-4.8,-5.3,-4.35));
#441 = DIRECTION('',(0.,-2.22044604925E-16,-1.));
#442 = DIRECTION('',(1.,0.,0.));
#443 = ADVANCED_FACE('',(#444),#473,.T.);
#444 = FACE_BOUND('',#445,.T.);
#445 = EDGE_LOOP('',(#446,#447,#448,#449,#450,#451,#459,#467));
#446 = ORIENTED_EDGE('',*,*,#191,.F.);
#447 = ORIENTED_EDGE('',*,*,#296,.F.);
#448 = ORIENTED_EDGE('',*,*,#337,.F.);
#449 = ORIENTED_EDGE('',*,*,#320,.F.);
#450 = ORIENTED_EDGE('',*,*,#216,.F.);
#451 = ORIENTED_EDGE('',*,*,#452,.T.);
#452 = EDGE_CURVE('',#217,#453,#455,.T.);
#453 = VERTEX_POINT('',#454);
#454 = CARTESIAN_POINT('',(4.3,-1.698641227676E-15,6.35));
#455 = LINE('',#456,#457);
#456 = CARTESIAN_POINT('',(4.3,-1.698641227676E-15,-7.65));
#457 = VECTOR('',#458,1.);
#458 = DIRECTION('',(0.,0.,1.));
#459 = ORIENTED_EDGE('',*,*,#460,.F.);
#460 = EDGE_CURVE('',#461,#453,#463,.T.);
#461 = VERTEX_POINT('',#462);
#462 = CARTESIAN_POINT('',(-4.3,-1.698641227676E-15,6.35));
#463 = LINE('',#464,#465);
#464 = CARTESIAN_POINT('',(-4.3,-1.698641227676E-15,6.35));
#465 = VECTOR('',#466,1.);
#466 = DIRECTION('',(1.,0.,0.));
#467 = ORIENTED_EDGE('',*,*,#468,.F.);
#468 = EDGE_CURVE('',#194,#461,#469,.T.);
#469 = LINE('',#470,#471);
#470 = CARTESIAN_POINT('',(-4.3,-1.698641227676E-15,-7.65));
#471 = VECTOR('',#472,1.);
#472 = DIRECTION('',(0.,0.,1.));
#473 = PLANE('',#474);
#474 = AXIS2_PLACEMENT_3D('',#475,#476,#477);
#475 = CARTESIAN_POINT('',(0.,5.459245018831E-32,2.458625383253E-16));
#476 = DIRECTION('',(0.,1.,0.));
#477 = DIRECTION('',(0.,0.,1.));
#478 = ADVANCED_FACE('',(#479),#497,.F.);
#479 = FACE_BOUND('',#480,.F.);
#480 = EDGE_LOOP('',(#481,#489,#495,#496));
#481 = ORIENTED_EDGE('',*,*,#482,.T.);
#482 = EDGE_CURVE('',#265,#483,#485,.T.);
#483 = VERTEX_POINT('',#484);
#484 = CARTESIAN_POINT('',(-4.3,-1.,6.35));
#485 = LINE('',#486,#487);
#486 = CARTESIAN_POINT('',(-4.3,-1.,-7.65));
#487 = VECTOR('',#488,1.);
#488 = DIRECTION('',(0.,0.,1.));
#489 = ORIENTED_EDGE('',*,*,#490,.T.);
#490 = EDGE_CURVE('',#483,#461,#491,.T.);
#491 = LINE('',#492,#493);
#492 = CARTESIAN_POINT('',(-4.3,-1.,6.35));
#493 = VECTOR('',#494,1.);
#494 = DIRECTION('',(0.,1.,0.));
#495 = ORIENTED_EDGE('',*,*,#468,.F.);
#496 = ORIENTED_EDGE('',*,*,#272,.F.);
#497 = PLANE('',#498);
#498 = AXIS2_PLACEMENT_3D('',#499,#500,#501);
#499 = CARTESIAN_POINT('',(-4.3,-1.,-7.65));
#500 = DIRECTION('',(-1.,0.,0.));
#501 = DIRECTION('',(0.,1.,0.));
#502 = ADVANCED_FACE('',(#503),#521,.F.);
#503 = FACE_BOUND('',#504,.F.);
#504 = EDGE_LOOP('',(#505,#513,#519,#520));
#505 = ORIENTED_EDGE('',*,*,#506,.T.);
#506 = EDGE_CURVE('',#257,#507,#509,.T.);
#507 = VERTEX_POINT('',#508);
#508 = CARTESIAN_POINT('',(-5.8,-1.,6.35));
#509 = LINE('',#510,#511);
#510 = CARTESIAN_POINT('',(-5.8,-1.,-7.65));
#511 = VECTOR('',#512,1.);
#512 = DIRECTION('',(0.,0.,1.));
#513 = ORIENTED_EDGE('',*,*,#514,.T.);
#514 = EDGE_CURVE('',#507,#483,#515,.T.);
#515 = LINE('',#516,#517);
#516 = CARTESIAN_POINT('',(-5.8,-1.,6.35));
#517 = VECTOR('',#518,1.);
#518 = DIRECTION('',(1.,0.,0.));
#519 = ORIENTED_EDGE('',*,*,#482,.F.);
#520 = ORIENTED_EDGE('',*,*,#264,.F.);
#521 = PLANE('',#522);
#522 = AXIS2_PLACEMENT_3D('',#523,#524,#525);
#523 = CARTESIAN_POINT('',(-5.8,-1.,-7.65));
#524 = DIRECTION('',(0.,1.,0.));
#525 = DIRECTION('',(1.,0.,0.));
#526 = ADVANCED_FACE('',(#527),#545,.F.);
#527 = FACE_BOUND('',#528,.F.);
#528 = EDGE_LOOP('',(#529,#537,#543,#544));
#529 = ORIENTED_EDGE('',*,*,#530,.T.);
#530 = EDGE_CURVE('',#249,#531,#533,.T.);
#531 = VERTEX_POINT('',#532);
#532 = CARTESIAN_POINT('',(-5.8,-2.3,6.35));
#533 = LINE('',#534,#535);
#534 = CARTESIAN_POINT('',(-5.8,-2.3,-7.65));
#535 = VECTOR('',#536,1.);
#536 = DIRECTION('',(0.,0.,1.));
#537 = ORIENTED_EDGE('',*,*,#538,.T.);
#538 = EDGE_CURVE('',#531,#507,#539,.T.);
#539 = LINE('',#540,#541);
#540 = CARTESIAN_POINT('',(-5.8,-2.3,6.35));
#541 = VECTOR('',#542,1.);
#542 = DIRECTION('',(0.,1.,0.));
#543 = ORIENTED_EDGE('',*,*,#506,.F.);
#544 = ORIENTED_EDGE('',*,*,#256,.F.);
#545 = PLANE('',#546);
#546 = AXIS2_PLACEMENT_3D('',#547,#548,#549);
#547 = CARTESIAN_POINT('',(-5.8,-2.3,-7.65));
#548 = DIRECTION('',(-1.,0.,0.));
#549 = DIRECTION('',(0.,1.,0.));
#550 = ADVANCED_FACE('',(#551),#569,.F.);
#551 = FACE_BOUND('',#552,.F.);
#552 = EDGE_LOOP('',(#553,#561,#567,#568));
#553 = ORIENTED_EDGE('',*,*,#554,.T.);
#554 = EDGE_CURVE('',#241,#555,#557,.T.);
#555 = VERTEX_POINT('',#556);
#556 = CARTESIAN_POINT('',(5.8,-2.3,6.35));
#557 = LINE('',#558,#559);
#558 = CARTESIAN_POINT('',(5.8,-2.3,-7.65));
#559 = VECTOR('',#560,1.);
#560 = DIRECTION('',(0.,0.,1.));
#561 = ORIENTED_EDGE('',*,*,#562,.T.);
#562 = EDGE_CURVE('',#555,#531,#563,.T.);
#563 = LINE('',#564,#565);
#564 = CARTESIAN_POINT('',(5.8,-2.3,6.35));
#565 = VECTOR('',#566,1.);
#566 = DIRECTION('',(-1.,0.,0.));
#567 = ORIENTED_EDGE('',*,*,#530,.F.);
#568 = ORIENTED_EDGE('',*,*,#248,.F.);
#569 = PLANE('',#570);
#570 = AXIS2_PLACEMENT_3D('',#571,#572,#573);
#571 = CARTESIAN_POINT('',(5.8,-2.3,-7.65));
#572 = DIRECTION('',(0.,-1.,0.));
#573 = DIRECTION('',(-1.,0.,0.));
#574 = ADVANCED_FACE('',(#575),#593,.F.);
#575 = FACE_BOUND('',#576,.F.);
#576 = EDGE_LOOP('',(#577,#585,#591,#592));
#577 = ORIENTED_EDGE('',*,*,#578,.T.);
#578 = EDGE_CURVE('',#233,#579,#581,.T.);
#579 = VERTEX_POINT('',#580);
#580 = CARTESIAN_POINT('',(5.8,-0.999999999954,6.35));
#581 = LINE('',#582,#583);
#582 = CARTESIAN_POINT('',(5.8,-0.999999999954,-7.65));
#583 = VECTOR('',#584,1.);
#584 = DIRECTION('',(0.,0.,1.));
#585 = ORIENTED_EDGE('',*,*,#586,.T.);
#586 = EDGE_CURVE('',#579,#555,#587,.T.);
#587 = LINE('',#588,#589);
#588 = CARTESIAN_POINT('',(5.8,-0.999999999954,6.35));
#589 = VECTOR('',#590,1.);
#590 = DIRECTION('',(0.,-1.,0.));
#591 = ORIENTED_EDGE('',*,*,#554,.F.);
#592 = ORIENTED_EDGE('',*,*,#240,.F.);
#593 = PLANE('',#594);
#594 = AXIS2_PLACEMENT_3D('',#595,#596,#597);
#595 = CARTESIAN_POINT('',(5.8,-0.999999999954,-7.65));
#596 = DIRECTION('',(1.,0.,0.));
#597 = DIRECTION('',(0.,-1.,0.));
#598 = ADVANCED_FACE('',(#599),#617,.F.);
#599 = FACE_BOUND('',#600,.F.);
#600 = EDGE_LOOP('',(#601,#609,#615,#616));
#601 = ORIENTED_EDGE('',*,*,#602,.T.);
#602 = EDGE_CURVE('',#225,#603,#605,.T.);
#603 = VERTEX_POINT('',#604);
#604 = CARTESIAN_POINT('',(4.3,-0.999999999954,6.35));
#605 = LINE('',#606,#607);
#606 = CARTESIAN_POINT('',(4.3,-0.999999999954,-7.65));
#607 = VECTOR('',#608,1.);
#608 = DIRECTION('',(0.,0.,1.));
#609 = ORIENTED_EDGE('',*,*,#610,.T.);
#610 = EDGE_CURVE('',#603,#579,#611,.T.);
#611 = LINE('',#612,#613);
#612 = CARTESIAN_POINT('',(4.3,-0.999999999954,6.35));
#613 = VECTOR('',#614,1.);
#614 = DIRECTION('',(1.,0.,0.));
#615 = ORIENTED_EDGE('',*,*,#578,.F.);
#616 = ORIENTED_EDGE('',*,*,#232,.F.);
#617 = PLANE('',#618);
#618 = AXIS2_PLACEMENT_3D('',#619,#620,#621);
#619 = CARTESIAN_POINT('',(4.3,-0.999999999954,-7.65));
#620 = DIRECTION('',(0.,1.,0.));
#621 = DIRECTION('',(1.,0.,0.));
#622 = ADVANCED_FACE('',(#623),#634,.F.);
#623 = FACE_BOUND('',#624,.F.);
#624 = EDGE_LOOP('',(#625,#626,#632,#633));
#625 = ORIENTED_EDGE('',*,*,#452,.T.);
#626 = ORIENTED_EDGE('',*,*,#627,.T.);
#627 = EDGE_CURVE('',#453,#603,#628,.T.);
#628 = LINE('',#629,#630);
#629 = CARTESIAN_POINT('',(4.3,-1.698641227676E-15,6.35));
#630 = VECTOR('',#631,1.);
#631 = DIRECTION('',(0.,-1.,0.));
#632 = ORIENTED_EDGE('',*,*,#602,.F.);
#633 = ORIENTED_EDGE('',*,*,#224,.F.);
#634 = PLANE('',#635);
#635 = AXIS2_PLACEMENT_3D('',#636,#637,#638);
#636 = CARTESIAN_POINT('',(4.3,-1.698641227676E-15,-7.65));
#637 = DIRECTION('',(1.,0.,0.));
#638 = DIRECTION('',(0.,-1.,0.));
#639 = ADVANCED_FACE('',(#640),#646,.F.);
#640 = FACE_BOUND('',#641,.T.);
#641 = EDGE_LOOP('',(#642,#643,#644,#645));
#642 = ORIENTED_EDGE('',*,*,#407,.T.);
#643 = ORIENTED_EDGE('',*,*,#431,.T.);
#644 = ORIENTED_EDGE('',*,*,#390,.T.);
#645 = ORIENTED_EDGE('',*,*,#359,.T.);
#646 = PLANE('',#647);
#647 = AXIS2_PLACEMENT_3D('',#648,#649,#650);
#648 = CARTESIAN_POINT('',(0.2,-4.3,0.65));
#649 = DIRECTION('',(0.,1.,0.));
#650 = DIRECTION('',(0.,0.,1.));
#651 = ADVANCED_FACE('',(#652),#662,.F.);
#652 = FACE_BOUND('',#653,.T.);
#653 = EDGE_LOOP('',(#654,#655,#656,#657,#658,#659,#660,#661));
#654 = ORIENTED_EDGE('',*,*,#538,.T.);
#655 = ORIENTED_EDGE('',*,*,#514,.T.);
#656 = ORIENTED_EDGE('',*,*,#490,.T.);
#657 = ORIENTED_EDGE('',*,*,#460,.T.);
#658 = ORIENTED_EDGE('',*,*,#627,.T.);
#659 = ORIENTED_EDGE('',*,*,#610,.T.);
#660 = ORIENTED_EDGE('',*,*,#586,.T.);
#661 = ORIENTED_EDGE('',*,*,#562,.T.);
#662 = PLANE('',#663);
#663 = AXIS2_PLACEMENT_3D('',#664,#665,#666);
#664 = CARTESIAN_POINT('',(2.473353256817E-12,-1.257913669062,6.35));
#665 = DIRECTION('',(0.,0.,1.));
#666 = DIRECTION('',(1.,0.,0.));
#667 = ( GEOMETRIC_REPRESENTATION_CONTEXT(3) 
GLOBAL_UNCERTAINTY_ASSIGNED_CONTEXT((#671)) GLOBAL_UNIT_ASSIGNED_CONTEXT
((#668,#669,#670)) REPRESENTATION_CONTEXT('Context #1',
  '3D Context with UNIT and UNCERTAINTY') );
#668 = ( LENGTH_UNIT() NAMED_UNIT(*) SI_UNIT(.MILLI.,.METRE.) );
#669 = ( NAMED_UNIT(*) PLANE_ANGLE_UNIT() SI_UNIT($,.RADIAN.) );
#670 = ( NAMED_UNIT(*) SI_UNIT($,.STERADIAN.) SOLID_ANGLE_UNIT() );
#671 = UNCERTAINTY_MEASURE_WITH_UNIT(LENGTH_MEASURE(1.E-07),#668,
  'distance_accuracy_value','confusion accuracy');
#672 = PRODUCT_RELATED_PRODUCT_CATEGORY('part',$,(#7));
#673 = MECHANICAL_DESIGN_GEOMETRIC_PRESENTATION_REPRESENTATION('',(#674)
  ,#667);
#674 = STYLED_ITEM('color',(#675),#15);
#675 = PRESENTATION_STYLE_ASSIGNMENT((#676,#682));
#676 = SURFACE_STYLE_USAGE(.BOTH.,#677);
#677 = SURFACE_SIDE_STYLE('',(#678));
#678 = SURFACE_STYLE_FILL_AREA(#679);
#679 = FILL_AREA_STYLE('',(#680));
#680 = FILL_AREA_STYLE_COLOUR('',#681);
#681 = COLOUR_RGB('',0.447058818107,0.474509808674,0.501960817233);
#682 = CURVE_STYLE('',#683,POSITIVE_LENGTH_MEASURE(0.1),#684);
#683 = DRAUGHTING_PRE_DEFINED_CURVE_FONT('continuous');
#684 = COLOUR_RGB('',9.803921802644E-02,9.803921802644E-02,
  9.803921802644E-02);
ENDSEC;
END-ISO-10303-21;
